<svg width="14" height="13" viewBox="0 0 14 13" fill="none" xmlns="http://www.w3.org/2000/svg">
<path d="M12.1146 2.99446C11.5813 2.38454 10.9182 1.8908 10.0966 1.49871C9.28946 1.10663 8.32373 0.90332 7.21386 0.90332C6.1184 0.90332 5.18151 1.0921 4.40316 1.48419C3.62481 1.87628 2.97618 2.37002 2.45728 2.96541C1.9528 3.5608 1.57804 4.21429 1.333 4.92585C1.10238 5.63742 0.972656 6.30542 0.972656 6.94438C0.972656 7.56882 1.08797 8.23682 1.333 8.93386C1.57804 9.64543 1.93838 10.2989 2.45728 10.8943C2.96177 11.4897 3.61039 11.998 4.40316 12.39C5.18151 12.7821 6.13282 12.9854 7.21386 12.9854C7.94897 12.9854 8.62642 12.8983 9.2318 12.7095C9.83719 12.5207 10.3705 12.2739 10.8606 11.9689C11.3362 11.664 11.7542 11.3009 12.1146 10.8943C12.4605 10.4877 12.7632 10.0666 12.9794 9.60186C13.21 9.15169 13.383 8.70152 13.4983 8.23682C13.6136 7.78664 13.6713 7.35099 13.6713 6.92986C13.6713 6.30542 13.5416 5.63742 13.2965 4.94037C13.0371 4.25785 12.6479 3.60437 12.1146 2.99446ZM11.6678 9.10812C11.4083 9.7616 11.0624 10.3134 10.63 10.7927C10.1975 11.2573 9.69305 11.6204 9.10208 11.8818C8.52553 12.1432 7.90573 12.2739 7.25711 12.2739C6.59407 12.2739 5.97426 12.1432 5.41212 11.8818C4.84998 11.6204 4.35991 11.2573 3.94191 10.7927C3.52391 10.328 3.2068 9.7616 2.96177 9.10812C2.73115 8.45464 2.60142 7.74308 2.60142 6.9589C2.60142 6.17472 2.71673 5.46316 2.96177 4.80968C3.2068 4.1562 3.52391 3.60437 3.94191 3.13968C4.35991 2.67498 4.84998 2.31193 5.41212 2.05054C5.97426 1.78915 6.59407 1.65845 7.25711 1.65845C7.90573 1.65845 8.52553 1.78915 9.10208 2.05054C9.67864 2.31193 10.1975 2.67498 10.63 3.13968C11.0624 3.60437 11.4083 4.17072 11.6678 4.80968C11.9272 5.46316 12.0425 6.17472 12.0425 6.9589C12.0425 7.74308 11.9128 8.45464 11.6678 9.10812Z" fill="white"/>
</svg>
