<svg width="0" height="0" class="hidden">
    <symbol fill="none" xmlns="http://www.w3.org/2000/svg" viewBox="0 0 16 16" id="arrow-left">
        <path d="M6.37988 3.95312L2.33322 7.99979L6.37988 12.0465" stroke="#7F713E" stroke-miterlimit="10" stroke-linecap="round" stroke-linejoin="round"></path>
        <path d="M13.6665 8H2.4465" stroke="#7F713E" stroke-miterlimit="10" stroke-linecap="round" stroke-linejoin="round"></path>
    </symbol>
    <symbol fill="none" xmlns="http://www.w3.org/2000/svg" viewBox="0 0 16 16" id="arrow-right">
        <path d="M9.62012 3.95312L13.6668 7.99979L9.62012 12.0465" stroke="#7F713E" stroke-miterlimit="10" stroke-linecap="round" stroke-linejoin="round"></path>
        <path d="M2.3335 8H13.5535" stroke="#7F713E" stroke-miterlimit="10" stroke-linecap="round" stroke-linejoin="round"></path>
    </symbol>
    <symbol fill="none" xmlns="http://www.w3.org/2000/svg" viewBox="0 0 9 12" id="E1">
        <path d="M0 11.7966H8.33122V10.8817H1.51346V9.7926C1.93146 8.79059 2.92602 8.09355 4.06471 8.09355H7.74025V7.33842H4.06471C3.05574 7.33842 2.16208 7.77407 1.51346 8.4566V6.88824V4.68093V1.03596H8.34563V0.121094H0V11.7966Z" fill="white"></path>
    </symbol>
    <symbol fill="none" xmlns="http://www.w3.org/2000/svg" viewBox="0 0 8 12" id="E2">
        <path d="M0.130859 11.7965H7.62607V10.8816H1.64432V7.70134H6.77565V6.94621H1.64432V1.03584H7.62607V0.106445H0.130859V11.7965Z" fill="white"></path>
    </symbol>
    <symbol fill="none" xmlns="http://www.w3.org/2000/svg" viewBox="0 0 41 35" id="EH">
        <path d="M34.9504 0V1.91688V8.27742C34.9504 12.5613 31.4766 16.0466 27.2245 16.0466H23.2319H17.1636H13.171C10.0144 16.0466 7.20365 17.5859 5.44516 19.9675V1.52479H13.0557H21.3869H21.5599V0H21.3869H13.0557H0.155273V33.9229H5.44516V32.1658V25.326C5.47399 21.0566 8.9189 17.5859 13.171 17.5859H17.1636H23.2319H27.2245C30.3812 17.5859 33.1919 16.032 34.9504 13.665V20.0981H34.9359V21.9715H34.9504V32.4998H18.8356V33.9084V34.01H40.2258V0H34.9504Z" fill="white"></path>
    </symbol>
    <symbol fill="none" xmlns="http://www.w3.org/2000/svg" viewBox="0 0 20 20" id="facebook">
        <path d="M10 0C4.477 0 0 4.477 0 10C0 14.991 3.657 19.128 8.438 19.879V12.89H5.898V10H8.438V7.797C8.438 5.291 9.93 3.907 12.215 3.907C13.309 3.907 14.453 4.102 14.453 4.102V6.562H13.193C11.95 6.562 11.563 7.333 11.563 8.124V10H14.336L13.893 12.89H11.563V19.879C16.343 19.129 20 14.99 20 10C20 4.477 15.523 0 10 0Z" fill="white"></path>
    </symbol>
    <symbol fill="none" xmlns="http://www.w3.org/2000/svg" viewBox="0 0 11 12" id="H">
        <path d="M8.48999 5.21811H1.5425V0.106445H0.043457V11.7965H1.5425V5.98777H8.48999V11.7965H10.0034V0.106445H8.48999V5.21811Z" fill="white"></path>
    </symbol>
    <symbol fill="none" xmlns="http://www.w3.org/2000/svg" viewBox="0 0 20 20" id="insta">
        <path d="M10 0C12.717 0 13.056 0.00999994 14.122 0.0599999C15.187 0.11 15.912 0.277 16.55 0.525C17.21 0.779 17.766 1.123 18.322 1.678C18.8305 2.1779 19.224 2.78259 19.475 3.45C19.722 4.087 19.89 4.813 19.94 5.878C19.987 6.944 20 7.283 20 10C20 12.717 19.99 13.056 19.94 14.122C19.89 15.187 19.722 15.912 19.475 16.55C19.2247 17.2178 18.8311 17.8226 18.322 18.322C17.822 18.8303 17.2173 19.2238 16.55 19.475C15.913 19.722 15.187 19.89 14.122 19.94C13.056 19.987 12.717 20 10 20C7.283 20 6.944 19.99 5.878 19.94C4.813 19.89 4.088 19.722 3.45 19.475C2.78233 19.2245 2.17753 18.8309 1.678 18.322C1.16941 17.8222 0.775931 17.2175 0.525 16.55C0.277 15.913 0.11 15.187 0.0599999 14.122C0.0129999 13.056 0 12.717 0 10C0 7.283 0.00999994 6.944 0.0599999 5.878C0.11 4.812 0.277 4.088 0.525 3.45C0.775236 2.78218 1.1688 2.17732 1.678 1.678C2.17767 1.16923 2.78243 0.775729 3.45 0.525C4.088 0.277 4.812 0.11 5.878 0.0599999C6.944 0.0129999 7.283 0 10 0ZM10 5C8.67392 5 7.40215 5.52678 6.46447 6.46447C5.52678 7.40215 5 8.67392 5 10C5 11.3261 5.52678 12.5979 6.46447 13.5355C7.40215 14.4732 8.67392 15 10 15C11.3261 15 12.5979 14.4732 13.5355 13.5355C14.4732 12.5979 15 11.3261 15 10C15 8.67392 14.4732 7.40215 13.5355 6.46447C12.5979 5.52678 11.3261 5 10 5ZM16.5 4.75C16.5 4.41848 16.3683 4.10054 16.1339 3.86612C15.8995 3.6317 15.5815 3.5 15.25 3.5C14.9185 3.5 14.6005 3.6317 14.3661 3.86612C14.1317 4.10054 14 4.41848 14 4.75C14 5.08152 14.1317 5.39946 14.3661 5.63388C14.6005 5.8683 14.9185 6 15.25 6C15.5815 6 15.8995 5.8683 16.1339 5.63388C16.3683 5.39946 16.5 5.08152 16.5 4.75ZM10 7C10.7956 7 11.5587 7.31607 12.1213 7.87868C12.6839 8.44129 13 9.20435 13 10C13 10.7956 12.6839 11.5587 12.1213 12.1213C11.5587 12.6839 10.7956 13 10 13C9.20435 13 8.44129 12.6839 7.87868 12.1213C7.31607 11.5587 7 10.7956 7 10C7 9.20435 7.31607 8.44129 7.87868 7.87868C8.44129 7.31607 9.20435 7 10 7Z" fill="white"></path>
    </symbol>
    <symbol fill="none" xmlns="http://www.w3.org/2000/svg" viewBox="0 0 9 12" id="L">
        <path d="M2.49686 0.106445H0.983398V11.7965H8.47861V10.8816H2.49686V0.106445Z" fill="white"></path>
    </symbol>
    <symbol fill="none" xmlns="http://www.w3.org/2000/svg" viewBox="0 0 14 12" id="M">
        <path d="M6.79339 10.141H6.72132L1.4026 0.106445H0.27832V11.7965H1.01343V2.27019H1.07108L6.20242 11.9998H6.4907L11.7373 2.32828H11.795V11.7965H13.3085V0.106445H12.1698L6.79339 10.141Z" fill="white"></path>
    </symbol>
    <symbol fill="none" xmlns="http://www.w3.org/2000/svg" viewBox="0 0 11 13" id="N">
        <path d="M9.94736 10.052H9.87529L0.679253 0.90332H0.592773V12.7967H1.35671V3.86577H1.42877L10.6248 13H10.7113V1.10662H9.94736V10.052Z" fill="white"></path>
    </symbol>
    <symbol fill="none" xmlns="http://www.w3.org/2000/svg" viewBox="0 0 14 13" id="O">
        <path d="M12.1146 2.99446C11.5813 2.38454 10.9182 1.8908 10.0966 1.49871C9.28946 1.10663 8.32373 0.90332 7.21386 0.90332C6.1184 0.90332 5.18151 1.0921 4.40316 1.48419C3.62481 1.87628 2.97618 2.37002 2.45728 2.96541C1.9528 3.5608 1.57804 4.21429 1.333 4.92585C1.10238 5.63742 0.972656 6.30542 0.972656 6.94438C0.972656 7.56882 1.08797 8.23682 1.333 8.93386C1.57804 9.64543 1.93838 10.2989 2.45728 10.8943C2.96177 11.4897 3.61039 11.998 4.40316 12.39C5.18151 12.7821 6.13282 12.9854 7.21386 12.9854C7.94897 12.9854 8.62642 12.8983 9.2318 12.7095C9.83719 12.5207 10.3705 12.2739 10.8606 11.9689C11.3362 11.664 11.7542 11.3009 12.1146 10.8943C12.4605 10.4877 12.7632 10.0666 12.9794 9.60186C13.21 9.15169 13.383 8.70152 13.4983 8.23682C13.6136 7.78664 13.6713 7.35099 13.6713 6.92986C13.6713 6.30542 13.5416 5.63742 13.2965 4.94037C13.0371 4.25785 12.6479 3.60437 12.1146 2.99446ZM11.6678 9.10812C11.4083 9.7616 11.0624 10.3134 10.63 10.7927C10.1975 11.2573 9.69305 11.6204 9.10208 11.8818C8.52553 12.1432 7.90573 12.2739 7.25711 12.2739C6.59407 12.2739 5.97426 12.1432 5.41212 11.8818C4.84998 11.6204 4.35991 11.2573 3.94191 10.7927C3.52391 10.328 3.2068 9.7616 2.96177 9.10812C2.73115 8.45464 2.60142 7.74308 2.60142 6.9589C2.60142 6.17472 2.71673 5.46316 2.96177 4.80968C3.2068 4.1562 3.52391 3.60437 3.94191 3.13968C4.35991 2.67498 4.84998 2.31193 5.41212 2.05054C5.97426 1.78915 6.59407 1.65845 7.25711 1.65845C7.90573 1.65845 8.52553 1.78915 9.10208 2.05054C9.67864 2.31193 10.1975 2.67498 10.63 3.13968C11.0624 3.60437 11.4083 4.17072 11.6678 4.80968C11.9272 5.46316 12.0425 6.17472 12.0425 6.9589C12.0425 7.74308 11.9128 8.45464 11.6678 9.10812Z" fill="white"></path>
    </symbol>
    <symbol fill="none" xmlns="http://www.w3.org/2000/svg" viewBox="0 0 21 20" id="pinterest">
        <path d="M11.3701 0.0943212C8.97736 -0.234824 6.54634 0.312873 4.52592 1.63628C2.5055 2.95969 1.03214 4.96942 0.377895 7.29439C-0.276351 9.61935 -0.067296 12.1025 0.966459 14.2854C2.00021 16.4682 3.78885 18.2033 6.0021 19.1703C5.94224 18.4021 5.99718 17.6293 6.1651 16.8773C6.3501 16.0383 7.4611 11.4143 7.4611 11.4143C7.23986 10.9184 7.1293 10.3803 7.1371 9.83732C7.1371 8.35232 7.9941 7.24432 9.0601 7.24432C9.2516 7.24153 9.44146 7.28002 9.61677 7.35715C9.79208 7.43429 9.94872 7.54827 10.076 7.69134C10.2034 7.83442 10.2984 8.00323 10.3547 8.18631C10.4109 8.36939 10.4271 8.56243 10.4021 8.75232C10.4021 9.65232 9.8241 11.0143 9.5221 12.2923C9.46241 12.5267 9.45862 12.7718 9.51104 13.0079C9.56345 13.2441 9.6706 13.4645 9.82385 13.6517C9.97711 13.8388 10.1722 13.9873 10.3933 14.0852C10.6145 14.1831 10.8555 14.2277 11.0971 14.2153C12.9951 14.2153 14.2671 11.7843 14.2671 8.91432C14.2671 6.71432 12.8101 5.06632 10.1241 5.06632C9.48147 5.04135 8.84048 5.14724 8.24003 5.37757C7.63958 5.60791 7.09221 5.95787 6.63115 6.40621C6.17008 6.85455 5.80495 7.39192 5.55792 7.9857C5.31089 8.57947 5.18711 9.21725 5.1941 9.86032C5.16546 10.5736 5.3956 11.2733 5.8421 11.8303C5.92553 11.8926 5.98645 11.9803 6.01567 12.0803C6.04489 12.1802 6.04083 12.2869 6.0041 12.3843C5.9581 12.5683 5.8421 13.0073 5.7961 13.1683C5.78653 13.2229 5.76427 13.2745 5.73112 13.3189C5.69797 13.3634 5.65484 13.3994 5.60523 13.4241C5.55561 13.4488 5.50088 13.4615 5.44545 13.4612C5.39002 13.4609 5.33544 13.4476 5.2861 13.4223C3.9021 12.8683 3.2501 11.3453 3.2501 9.60632C3.2501 6.75932 5.6341 3.35132 10.4041 3.35132C14.2001 3.35132 16.7241 6.12832 16.7241 9.09832C16.7241 13.0073 14.5471 15.9463 11.3301 15.9463C10.8493 15.9617 10.3724 15.8556 9.94343 15.6378C9.51449 15.42 9.1474 15.0976 8.8761 14.7003C8.8761 14.7003 8.2981 17.0163 8.1841 17.4543C7.95139 18.211 7.608 18.9291 7.1651 19.5853C8.0881 19.8653 9.0471 20.0053 10.0111 20.0013C11.3247 20.0024 12.6256 19.7443 13.8393 19.2419C15.053 18.7395 16.1556 18.0026 17.0842 17.0734C18.0127 16.1443 18.7488 15.0411 19.2504 13.827C19.7519 12.613 20.0091 11.3119 20.0071 9.99832C20.0059 7.58332 19.1309 5.25032 17.5437 3.4301C15.9566 1.60988 13.7644 0.425386 11.3721 0.0953211L11.3701 0.0943212Z" fill="white"></path>
    </symbol>
    <symbol fill="none" xmlns="http://www.w3.org/2000/svg" viewBox="0 0 11 12" id="T">
        <path d="M0.189453 1.03584H4.62893V11.7965H6.14239V1.03584H10.5819V0.106445H0.189453V1.03584Z" fill="white"></path>
    </symbol>
    <symbol fill="none" xmlns="http://www.w3.org/2000/svg" viewBox="0 0 25 22" id="burger">
        <path d="M1.53271 3.57324H22.5327C23.3611 3.57324 24.0327 2.90167 24.0327 2.07324C24.0327 1.24481 23.3611 0.573242 22.5327 0.573242H1.53271C0.704288 0.573242 0.0327148 1.24482 0.0327148 2.07324C0.0327148 2.90167 0.704288 3.57324 1.53271 3.57324Z" fill="white"></path>
        <path d="M22.5327 12.5732H1.53271C0.704288 12.5732 0.0327148 11.9017 0.0327148 11.0732C0.0327148 10.2448 0.704288 9.57324 1.53271 9.57324H22.5327C23.3611 9.57324 24.0327 10.2448 24.0327 11.0732C24.0327 11.9017 23.3611 12.5732 22.5327 12.5732Z" fill="white"></path>
        <path d="M22.5327 21.5732H1.53271C0.704288 21.5732 0.0327148 20.9017 0.0327148 20.0732C0.0327148 19.2448 0.704288 18.5732 1.53271 18.5732H22.5327C23.3611 18.5732 24.0327 19.2448 24.0327 20.0732C24.0327 20.9017 23.3611 21.5732 22.5327 21.5732Z" fill="white"></path>
    </symbol>
    <symbol fill="none" xmlns="http://www.w3.org/2000/svg" viewBox="0 0 22 22" id="cross">
        <path fill-rule="evenodd" clip-rule="evenodd" d="M21.0202 3.48744C21.7036 2.80402 21.7036 1.69598 21.0202 1.01256C20.3367 0.329146 19.2287 0.329146 18.5453 1.01256L11.0327 8.52513L3.52015 1.01256C2.83673 0.329147 1.7287 0.329147 1.04528 1.01256C0.36186 1.69598 0.36186 2.80402 1.04528 3.48744L8.55784 11L1.04528 18.5126C0.36186 19.196 0.36186 20.304 1.04528 20.9874C1.7287 21.6709 2.83673 21.6709 3.52015 20.9874L11.0327 13.4749L18.5453 20.9874C19.2287 21.6709 20.3367 21.6709 21.0202 20.9874C21.7036 20.304 21.7036 19.196 21.0202 18.5126L13.5076 11L21.0202 3.48744Z" fill="white"></path>
    </symbol>
    <symbol xmlns="http://www.w3.org/2000/svg" viewBox="0 0 512 512" id="heart">
        <path d="M0 190.9V185.1C0 115.2 50.52 55.58 119.4 44.1C164.1 36.51 211.4 51.37 244 84.02L256 96L267.1 84.02C300.6 51.37 347 36.51 392.6 44.1C461.5 55.58 512 115.2 512 185.1V190.9C512 232.4 494.8 272.1 464.4 300.4L283.7 469.1C276.2 476.1 266.3 480 256 480C245.7 480 235.8 476.1 228.3 469.1L47.59 300.4C17.23 272.1 .0003 232.4 .0003 190.9L0 190.9z"></path>
    </symbol>
    <symbol xmlns="http://www.w3.org/2000/svg" viewBox="0 0 448 512" id="fire">
        <path d="M323.5 51.25C302.8 70.5 284 90.75 267.4 111.1C240.1 73.62 206.2 35.5 168 0C69.75 91.12 0 210 0 281.6C0 408.9 100.2 512 224 512s224-103.1 224-230.4C448 228.4 396 118.5 323.5 51.25zM304.1 391.9C282.4 407 255.8 416 226.9 416c-72.13 0-130.9-47.73-130.9-125.2c0-38.63 24.24-72.64 72.74-130.8c7 8 98.88 125.4 98.88 125.4l58.63-66.88c4.125 6.75 7.867 13.52 11.24 19.9C364.9 290.6 353.4 357.4 304.1 391.9z"></path>
    </symbol>
    <symbol fill="none" xmlns="http://www.w3.org/2000/svg" viewBox="0 0 14 16" id="triangle">
        <path d="M13.3998 8.00005L0.799805 15.2L0.799805 0.800049L13.3998 8.00005Z" fill="white"></path>
    </symbol>
</svg>